<svg width="48" height="48" viewBox="0 0 49 48" fill="none" xmlns="http://www.w3.org/2000/svg">
<path d="M32 28.5C32 28.8978 31.842 29.2794 31.5607 29.5607C31.2794 29.842 30.8978 30 30.5 30H18.5C18.1022 30 17.7206 29.842 17.4393 29.5607C17.158 29.2794 17 28.8978 17 28.5C17 28.1022 17.158 27.7206 17.4393 27.4393C17.7206 27.158 18.1022 27 18.5 27H30.5C30.8978 27 31.2794 27.158 31.5607 27.4393C31.842 27.7206 32 28.1022 32 28.5ZM30.5 21H18.5C18.1022 21 17.7206 21.158 17.4393 21.4393C17.158 21.7206 17 22.1022 17 22.5C17 22.8978 17.158 23.2794 17.4393 23.5607C17.7206 23.842 18.1022 24 18.5 24H30.5C30.8978 24 31.2794 23.842 31.5607 23.5607C31.842 23.2794 32 22.8978 32 22.5C32 22.1022 31.842 21.7206 31.5607 21.4393C31.2794 21.158 30.8978 21 30.5 21ZM41 9V40.5C41 41.2957 40.6839 42.0587 40.1213 42.6213C39.5587 43.1839 38.7956 43.5 38 43.5H11C10.2044 43.5 9.44129 43.1839 8.87868 42.6213C8.31607 42.0587 8 41.2957 8 40.5V9C8 8.20435 8.31607 7.44129 8.87868 6.87868C9.44129 6.31607 10.2044 6 11 6H17.7987C18.6416 5.05636 19.6742 4.30136 20.829 3.78442C21.9838 3.26749 23.2348 3.00027 24.5 3.00027C25.7652 3.00027 27.0162 3.26749 28.171 3.78442C29.3258 4.30136 30.3584 5.05636 31.2013 6H38C38.7956 6 39.5587 6.31607 40.1213 6.87868C40.6839 7.44129 41 8.20435 41 9ZM18.5 12H30.5C30.5 10.4087 29.8679 8.88258 28.7426 7.75736C27.6174 6.63214 26.0913 6 24.5 6C22.9087 6 21.3826 6.63214 20.2574 7.75736C19.1321 8.88258 18.5 10.4087 18.5 12ZM38 9H32.9844C33.3256 9.96341 33.5 10.978 33.5 12V13.5C33.5 13.8978 33.342 14.2794 33.0607 14.5607C32.7794 14.842 32.3978 15 32 15H17C16.6022 15 16.2206 14.842 15.9393 14.5607C15.658 14.2794 15.5 13.8978 15.5 13.5V12C15.5 10.978 15.6744 9.96341 16.0156 9H11V40.5H38V9Z" fill="#DDD2EF"/>
</svg>
