<svg width="24" height="24" viewBox="0 0 24 24" fill="none" xmlns="http://www.w3.org/2000/svg">
<path d="M17.5 7H15V6.5C15 6.10218 14.842 5.72064 14.5607 5.43934C14.2794 5.15804 13.8978 5 13.5 5H10.5C10.1022 5 9.72064 5.15804 9.43934 5.43934C9.15804 5.72064 9 6.10218 9 6.5V7H6.5C6.36739 7 6.24021 7.05268 6.14645 7.14645C6.05268 7.24021 6 7.36739 6 7.5C6 7.63261 6.05268 7.75979 6.14645 7.85355C6.24021 7.94732 6.36739 8 6.5 8H7V17C7 17.2652 7.10536 17.5196 7.29289 17.7071C7.48043 17.8946 7.73478 18 8 18H16C16.2652 18 16.5196 17.8946 16.7071 17.7071C16.8946 17.5196 17 17.2652 17 17V8H17.5C17.6326 8 17.7598 7.94732 17.8536 7.85355C17.9473 7.75979 18 7.63261 18 7.5C18 7.36739 17.9473 7.24021 17.8536 7.14645C17.7598 7.05268 17.6326 7 17.5 7ZM10 6.5C10 6.36739 10.0527 6.24021 10.1464 6.14645C10.2402 6.05268 10.3674 6 10.5 6H13.5C13.6326 6 13.7598 6.05268 13.8536 6.14645C13.9473 6.24021 14 6.36739 14 6.5V7H10V6.5ZM16 17H8V8H16V17ZM11 10.5V14.5C11 14.6326 10.9473 14.7598 10.8536 14.8536C10.7598 14.9473 10.6326 15 10.5 15C10.3674 15 10.2402 14.9473 10.1464 14.8536C10.0527 14.7598 10 14.6326 10 14.5V10.5C10 10.3674 10.0527 10.2402 10.1464 10.1464C10.2402 10.0527 10.3674 10 10.5 10C10.6326 10 10.7598 10.0527 10.8536 10.1464C10.9473 10.2402 11 10.3674 11 10.5ZM14 10.5V14.5C14 14.6326 13.9473 14.7598 13.8536 14.8536C13.7598 14.9473 13.6326 15 13.5 15C13.3674 15 13.2402 14.9473 13.1464 14.8536C13.0527 14.7598 13 14.6326 13 14.5V10.5C13 10.3674 13.0527 10.2402 13.1464 10.1464C13.2402 10.0527 13.3674 10 13.5 10C13.6326 10 13.7598 10.0527 13.8536 10.1464C13.9473 10.2402 14 10.3674 14 10.5Z" fill="#6B6572"/>
</svg>
